<?xml version="1.0" encoding="UTF-8" standalone="no"?>
<!DOCTYPE svg PUBLIC "-//W3C//DTD SVG 1.1//EN" "http://www.w3.org/Graphics/SVG/1.1/DTD/svg11.dtd">
<svg width="100%" height="100%" viewBox="0 0 806 562" version="1.1" xmlns="http://www.w3.org/2000/svg" xmlns:xlink="http://www.w3.org/1999/xlink" xml:space="preserve" xmlns:serif="http://www.serif.com/" style="fill-rule:evenodd;clip-rule:evenodd;stroke-linecap:round;stroke-linejoin:round;stroke-miterlimit:1.5;">
    <g transform="matrix(1,0,0,1,3,-41)">
        <g id="Outline">
            <path d="M0,575L0,532L22,513L22,378L7.057,365.01L7.057,336L21,331L28.571,333L28.571,338L35,336L34,250.966L22.921,241.909L22.995,224L34.676,217L48,217L48,226L63,226L63,217L76,217L76,226L91,226L91,217L105,217L116,224L116,241.909L105,250.966L105,333L122,333L122,213L111,204.006L111,186L122.222,179L136,179L136,188L150,188L150,179L164,179L164,188L178,188L178,179L192.025,179L204,186L204,204.006L193,213L193.046,333L218,333L218,317.901L231,317.901L231,307L212.805,290L212.805,250.966L230,244L240,246L240,253L247,250.966L247.069,139L233,126.855L233,103L247,94L264,94L264,105L282,105L282,94L299,94L299,105L317,105L317,94L334,94L348,103L348,127L334,139L334,248L356,248L356,89L341.253,76.774L341.253,54L355.753,44.024L372,44.024L372,55L390,55L390,44L407,44L407,55L425,55L425,44L443,44L457,54L457,77L443,89L443,248L464,248L464,139L449.589,126.855L449.589,104L464,94L481,94L481,105L499,105L499,93.893L516,94L516,105L534,105L534,94L551,94L565,103L565,127L551,139L551,252L558,254L558,246L568,244L585.263,250.966L585.263,289.508L569,307L569,317.901L581,317.901L581,333L607,333L607,213.206L595.405,204.006L595.461,186L607,179L621,179L621,188L635,188L635,179L649,179L649,188L664,188L664,179L677.317,179L689,186L689,204.006L677.317,214L677.317,333L695,333L695,250.966L683.119,241.909L683.119,224L695.006,217L709,217L709,226L723,226L723,217L737,216.963L737,226L752,226L752,216.963L765.193,217L776.862,224L776.862,241.909L765.193,252L765.129,337L770.996,338L770.996,333L779,331L792.917,336L792.917,365.01L778,378L778,513L800,532L800,576L750,600L690,600L690,462C690,462 690.01,401 640.024,401C594.361,401 590,462 590,462L590,597.891L464,597.891L464,440C464,440 469.996,336 400,336.076C333.994,336.148 338,440 338,440L338,597.214L208,597.891L208,462C208,462 210.883,401 157.383,401C111,401 109,462 109,462L109,599.637L50,600L0,575Z" style="fill:rgb(51,76,106);stroke:black;stroke-width:6px;"/>
        </g>
    </g>
</svg>
